PathFileType	4	(X/Y/Z)	Patient4_TMGait_0pt5_01_right_16.trc.trc
DataRate	CameraRate	NumFrames	NumMarkers	Units	OrigDataRate	OrigDataStartFrame	OrigNumFrames
75.675675675676	75.675675675676	4	33	mm	75.675675675676	106	       141
Frame#	Time	L.ASIS			Sacral			L.Shoulder			Chest			R.Shoulder			Neck			R.ASIS			R.Thigh.Superior			R.Thigh.Lateral			R.Thigh.Inferior			R.Patella			L.Thigh.Superior			L.Thigh.Lateral			L.Thigh.Inferior			L.Patella			L.Shank.Superior			L.Shank.Lateral			L.Shank.Inferior			R.Shank.Superior			R.Shank.Lateral			R.Shank.Inferior			R.Heel			R.Midfoot.Superior			R.Midfoot.Lateral			R.Toe			L.Heel			L.Midfoot.Lateral			L.Midfoot.Superior			L.Toe			L.Elbow			L.Wrist			R.Elbow			R.Wrist			
		X1	Y1	Z1	X2	Y2	Z2	X3	Y3	Z3	X4	Y4	Z4	X5	Y5	Z5	X6	Y6	Z6	X7	Y7	Z7	X8	Y8	Z8	X9	Y9	Z9	X10	Y10	Z10	X11	Y11	Z11	X12	Y12	Z12	X13	Y13	Z13	X14	Y14	Z14	X15	Y15	Z15	X16	Y16	Z16	X17	Y17	Z17	X18	Y18	Z18	X19	Y19	Z19	X20	Y20	Z20	X21	Y21	Z21	X22	Y22	Z22	X23	Y23	Z23	X24	Y24	Z24	X25	Y25	Z25	X26	Y26	Z26	X27	Y27	Z27	X28	Y28	Z28	X29	Y29	Z29	X30	Y30	Z30	X31	Y31	Z31	X32	Y32	Z32	X33	Y33	Z33	

106	22.137500000000	827.834245247523	964.130221320733	286.156005831084	619.318473696304	1013.902569587035	451.045583518187	799.495042843007	1444.205287130091	276.406528429772	904.741979637235	1364.754481609782	431.416086494789	828.484719329555	1434.603810520212	611.207752701100	808.645971179875	1499.819876253116	428.225543526683	848.308603773571	945.437383866352	559.961643622421	927.877871083025	777.810688916012	526.930431563845	892.524905478959	658.080559272271	602.214412290814	978.093701682961	617.328716241966	518.488236192603	998.189418817547	503.729770965363	540.447305732738	868.552213731783	748.386761552295	319.171264206183	771.854066768480	636.114048754778	267.073195442344	850.480438329906	555.244364603133	331.835913895955	846.535324411194	485.009071260616	345.307381801372	817.036526977699	414.351321923124	338.874463584491	723.851721077274	303.402914638908	289.767895609445	765.561421959444	192.249941964109	364.935800883354	922.283787004836	429.097697653403	550.728199363921	804.057558715292	388.705562265513	615.822350284988	788.024470809443	279.789062042768	567.862820346419	587.243322156890	221.319539556119	550.319990972248	755.420403256077	156.194826046897	578.858546808846	647.079416383256	154.984925048775	616.804418245060	817.988556430360	40.176985396803	595.905230819463	627.571061252170	39.467519861848	406.694990948483	702.908860809234	35.821586830312	327.334703235049	786.959883126317	96.053816533418	354.507879472313	915.015459305698	39.921631476544	328.117626372124	775.674135156211	1112.176746466445	111.869579978798	1001.798736756305	988.453555715736	82.518615203816	765.787408912589	1089.370159519963	716.644943579653	813.366293242260	832.076346807871	722.019865828449	
107	22.150714285714	827.961219069441	963.944029309619	286.599525844670	618.637222686422	1014.428245355211	450.652553182671	800.873577750938	1444.262490072071	276.031506817769	904.969143130716	1364.881880294810	431.834656509310	827.667131073424	1435.145753446658	610.989908401230	809.033392865142	1500.067795584353	427.831362876617	847.067682206925	946.180330419433	560.616742235132	928.445517989358	781.018852843760	527.433450248825	895.703020547258	660.951812800047	603.128137584746	981.294131901825	621.409858580021	518.880671513705	1003.948540918187	508.990259575940	541.127693952006	866.234145495071	747.361448160484	320.430868945449	768.590831825870	636.136499566292	267.439147044572	845.831651738155	554.448371913709	332.659643660132	840.885043630518	484.401995982120	346.144265343666	811.426232487604	414.044563662873	339.404139871933	718.015235681259	303.413240979036	290.029884300427	759.245049675661	192.111167894379	365.194419598703	931.213950919006	432.017503119213	551.339881004851	815.071956163659	385.979538652301	616.143401105613	804.359695560265	276.498396225634	567.975659010093	606.569257975907	207.750656091203	549.799494072156	777.789635564159	151.888547331085	578.859866490336	669.710646050749	145.091210780725	616.755339294551	846.557044506656	39.798135245377	596.577660526982	620.891373979450	39.442280081450	406.678858216506	696.252082376968	35.816298549455	327.339670448837	780.310287209368	96.045778662937	354.559659285349	908.364062095464	39.910437751232	328.110263700135	781.826243142637	1112.629822216275	110.751548198249	1012.553761109053	998.158963014280	81.815035983324	755.613803601469	1092.116654924922	716.106356299597	793.900119715866	833.193815935678	720.529156036456	
108	22.163928571429	828.118155700116	963.592713776171	287.120436511516	617.973910507591	1014.833670518641	450.357939796353	802.253571859283	1444.163555258953	275.794942531719	905.217432307798	1364.866409511446	432.374257087668	826.902279486536	1435.582391390679	610.883101640427	809.440201827362	1500.177475291704	427.554978831043	845.831199300506	946.718895353325	561.380035828849	928.588360464919	783.663354120686	528.126554660225	898.080179829993	663.332718761434	604.213726705386	983.567593000939	624.772951208179	519.488507460810	1008.587612098127	513.810849210350	542.036994150505	863.879479445641	746.256120213039	321.814834564681	765.289837459944	636.120652262148	267.818025973087	841.064031264989	553.596266276888	333.526080051324	835.119868874440	483.775214972045	346.991915049007	805.723852101196	413.703609796955	339.941241318809	712.101662416350	303.374101537647	290.308118240824	752.870141261163	191.938098224624	365.481459576980	939.424252956308	434.550742714993	552.187622531282	825.983493445994	382.442996924101	616.819064724908	821.085128939547	272.649914472688	568.378707341688	627.230397908203	192.934441730041	549.636054470451	801.151690834463	147.242106838198	579.208314208459	693.727424056540	134.440798991707	617.116431617622	876.363628423364	39.683413818393	597.652904478702	614.217961464426	39.380041829484	406.674371248809	689.581860504769	35.795601978600	327.349719746162	773.637370767998	96.021663700406	354.638639212852	901.704087561205	39.917773561889	328.119158228119	787.849233498916	1112.940713494148	109.931967376234	1022.755643310995	1007.724098819324	81.585635402170	745.583573822811	1094.899183589258	715.358445909646	775.397817289802	834.830225841860	719.113357020569	
109	22.177142857143	828.304421410293	963.085311226349	287.706466335506	617.360914014536	1015.101589715773	450.160692926978	803.642027001644	1443.906934014597	275.706325540235	905.494449041259	1364.701625813849	433.042540871359	826.194854693871	1435.898233357947	610.900237320595	809.877411743918	1500.141857116141	427.408790714809	844.637403390849	947.037924990185	562.247100623597	928.306292874475	785.660822113100	528.996201194178	899.569981772968	665.129891186313	605.448350682620	984.870299318313	627.308641133907	520.330065635434	1012.046844834933	518.081911049372	543.155115556737	861.490923597045	745.065799525151	323.265546078808	761.935170262996	636.066271451857	268.190026924627	836.164569838051	552.689602705364	334.402402644965	829.236808058580	483.134240851028	347.813663009557	799.923710754993	413.335782797963	340.458514095195	706.104135525367	303.288818299941	290.584244889163	746.435441610054	191.734830372729	365.782637563724	946.821951701728	436.671906390598	553.251403075459	836.757629961699	378.193331300547	617.846073062112	838.082286462989	268.427640879137	569.060175338742	649.219435772071	177.244650145044	549.814280935369	825.320533942945	142.530870158960	579.895727868692	719.017715686212	123.384278889510	617.860690876744	907.065600857358	40.135892925150	599.098864831055	607.550140013292	39.287225763876	406.678447650270	682.897330155766	35.761061297261	327.362520673482	766.941392154645	95.981564595602	354.739570199536	895.033047090967	39.942715428300	328.143120000377	793.734308849506	1113.105620736211	109.397844635704	1032.377889380106	1017.049230837447	81.819173800017	735.824460589193	1097.655220961701	714.424554640418	757.948201775811	836.832888013027	717.823489445024	
